<svg width="132" height="93" viewBox="0 0 132 93" fill="none" xmlns="http://www.w3.org/2000/svg">
<g clip-path="url(#clip0)">
<path d="M3.9334 87.3476C4.49329 87.5443 5.09442 87.5935 5.67889 87.4906C6.26335 87.3877 6.81146 87.1361 7.27039 86.7601C8.43918 85.7796 8.80607 84.1644 9.10378 82.6687L9.98566 78.2448L8.13934 79.5155C6.81151 80.4292 5.45388 81.3723 4.53445 82.6959C3.61502 84.0195 3.21376 85.8263 3.95241 87.2584" fill="#E4E4E4"/>
<path d="M4.09123 92.7036C3.90437 91.3431 3.71218 89.9652 3.84324 88.5901C3.95971 87.369 4.33238 86.1762 5.0914 85.1982C5.49426 84.6801 5.98445 84.2361 6.53996 83.8863C6.68486 83.7952 6.81805 84.0245 6.67391 84.1153C5.71278 84.7224 4.96937 85.6189 4.55087 86.6754C4.08865 87.8504 4.01445 89.1313 4.09473 90.3793C4.14293 91.1341 4.24495 91.8837 4.34789 92.6329C4.35618 92.6668 4.35119 92.7026 4.33395 92.7329C4.31671 92.7633 4.28851 92.7859 4.25514 92.7961C4.22119 92.8053 4.185 92.8007 4.15442 92.7833C4.12385 92.766 4.10136 92.7372 4.09184 92.7034L4.09123 92.7036Z" fill="#F2F2F2"/>
<path d="M82.7073 92.8199H25.6959C24.3446 92.8184 23.0491 92.2812 22.0936 91.3263C21.1381 90.3713 20.6007 89.0766 20.5991 87.726V5.09386C20.6007 3.74335 21.1381 2.4486 22.0936 1.49364C23.0491 0.538688 24.3446 0.00152475 25.6959 0H82.7073C84.0586 0.00152475 85.3541 0.538688 86.3096 1.49364C87.2651 2.4486 87.8026 3.74335 87.8041 5.09386V87.7261C87.8026 89.0766 87.2651 90.3713 86.3096 91.3263C85.3541 92.2812 84.0586 92.8184 82.7073 92.8199V92.8199Z" fill="#3F3D56"/>
<path d="M82.8077 89.5699H25.5956C25.179 89.5694 24.7797 89.4038 24.4851 89.1095C24.1906 88.8151 24.0249 88.416 24.0244 87.9997V4.82024C24.0249 4.40393 24.1906 4.00481 24.4851 3.71044C24.7797 3.41606 25.179 3.25047 25.5956 3.25H82.8077C83.2242 3.25047 83.6236 3.41606 83.9181 3.71044C84.2127 4.00481 84.3783 4.40393 84.3788 4.82024V87.9997C84.3783 88.416 84.2127 88.8151 83.9181 89.1095C83.6236 89.4038 83.2242 89.5694 82.8077 89.5699V89.5699Z" fill="white"/>
<path d="M53.9848 1.99331C54.2243 1.99331 54.4184 1.7993 54.4184 1.55998C54.4184 1.32066 54.2243 1.12665 53.9848 1.12665C53.7454 1.12665 53.5512 1.32066 53.5512 1.55998C53.5512 1.7993 53.7454 1.99331 53.9848 1.99331Z" fill="white"/>
<path d="M27.8119 41.4789H76.5756V33.1257C76.5682 32.2449 76.3848 31.3745 76.0363 30.5655C75.6877 29.7564 75.181 29.0252 74.5458 28.4145L74.5325 28.4016C73.6616 27.5282 70.7509 25.3116 67.7393 25.4995C66.1485 25.5985 64.7865 26.3647 63.6913 27.777C60.2821 32.1746 55.8039 30.6901 53.4379 29.4139C51.3528 28.289 49.2233 27.761 47.1083 27.845C44.1462 27.9608 39.9769 29.0514 36.9364 33.5897C35.7751 35.3217 33.2495 37.6727 27.8119 39.0544L27.8119 41.4789Z" fill="#E4E4E4"/>
<path d="M79.3347 41.6732H27.9058C27.8631 41.6732 27.8221 41.6562 27.792 41.6261C27.7618 41.5959 27.7448 41.555 27.7448 41.5123L27.8229 41.3333L79.3347 41.3515C79.3773 41.3515 79.4183 41.3684 79.4485 41.3986C79.4786 41.4287 79.4956 41.4697 79.4956 41.5123C79.4956 41.555 79.4786 41.5959 79.4485 41.6261C79.4183 41.6562 79.3773 41.6732 79.3347 41.6732H79.3347Z" fill="#3F3D56"/>
<path d="M37.6884 32.1995H37.3727V41.4468H37.6884V32.1995Z" fill="#3F3D56"/>
<path d="M47.1391 27.8806H46.8235V41.4468H47.1391V27.8806Z" fill="#3F3D56"/>
<path d="M56.6093 30.72H56.2936V41.4468H56.6093V30.72Z" fill="#3F3D56"/>
<path d="M66.0795 25.5144H65.7638V41.4468H66.0795V25.5144Z" fill="#3F3D56"/>
<path d="M75.5497 29.1426H75.234V41.4468H75.5497V29.1426Z" fill="#3F3D56"/>
<path d="M47.0008 29.0632C47.5341 29.0632 47.9664 28.6311 47.9664 28.0981C47.9664 27.565 47.5341 27.1329 47.0008 27.1329C46.4674 27.1329 46.0351 27.565 46.0351 28.0981C46.0351 28.6311 46.4674 29.0632 47.0008 29.0632Z" fill="#6C63FF"/>
<path d="M65.9411 26.5393C66.4745 26.5393 66.9068 26.1072 66.9068 25.5742C66.9068 25.0411 66.4745 24.609 65.9411 24.609C65.4078 24.609 64.9754 25.0411 64.9754 25.5742C64.9754 26.1072 65.4078 26.5393 65.9411 26.5393Z" fill="#6C63FF"/>
<path d="M56.4709 31.7449C57.0043 31.7449 57.4366 31.3128 57.4366 30.7798C57.4366 30.2467 57.0043 29.8146 56.4709 29.8146C55.9376 29.8146 55.5053 30.2467 55.5053 30.7798C55.5053 31.3128 55.9376 31.7449 56.4709 31.7449Z" fill="#6C63FF"/>
<path d="M37.5306 33.1647C38.0639 33.1647 38.4963 32.7326 38.4963 32.1995C38.4963 31.6665 38.0639 31.2344 37.5306 31.2344C36.9972 31.2344 36.5649 31.6665 36.5649 32.1995C36.5649 32.7326 36.9972 33.1647 37.5306 33.1647Z" fill="#6C63FF"/>
<path d="M75.4113 30.0097C75.9447 30.0097 76.377 29.5776 76.377 29.0445C76.377 28.5115 75.9447 28.0794 75.4113 28.0794C74.878 28.0794 74.4456 28.5115 74.4456 29.0445C74.4456 29.5776 74.878 30.0097 75.4113 30.0097Z" fill="#6C63FF"/>
<path d="M46.7292 75.1332V58.7948C46.7292 58.6942 46.7692 58.5977 46.8404 58.5265C46.9116 58.4554 47.0081 58.4154 47.1088 58.4154H48.8029C48.9036 58.4154 49.0002 58.4554 49.0714 58.5265C49.1426 58.5977 49.1826 58.6942 49.1826 58.7948V58.7948V75.1758L46.7292 75.1332Z" fill="#3F3D56"/>
<path d="M52.3246 75.1844V62.1932C52.3246 62.0926 52.3646 61.9961 52.4358 61.9249C52.507 61.8538 52.6036 61.8138 52.7043 61.8138H54.3984C54.4991 61.8138 54.5956 61.8538 54.6668 61.9249C54.738 61.9961 54.778 62.0926 54.778 62.1932V75.1565L52.3246 75.1844Z" fill="#3F3D56"/>
<path d="M63.5155 75.1265V56.2955C63.5084 56.1874 63.5443 56.0807 63.6154 55.9989C63.6864 55.917 63.787 55.8664 63.8952 55.8582H65.5893C65.6974 55.8664 65.798 55.917 65.8691 55.9988C65.9402 56.0807 65.976 56.1873 65.9689 56.2955V75.1758L63.5155 75.1265Z" fill="#3F3D56"/>
<path d="M41.1337 75.1521V66.0608C41.1337 65.9442 41.3037 65.8497 41.5133 65.8497H43.2075C43.4171 65.8497 43.5871 65.9443 43.5871 66.0608V75.1758L41.1337 75.1521Z" fill="#3F3D56"/>
<path d="M57.92 75.1201V53.7504C57.92 53.4763 58.09 53.2542 58.2997 53.2542H59.9938C60.2035 53.2542 60.3734 53.4763 60.3734 53.7504V75.1758L57.92 75.1201Z" fill="#6C63FF"/>
<path d="M73.2702 75.3725H34.9542C34.9139 75.3725 34.8752 75.3565 34.8467 75.328C34.8182 75.2995 34.8022 75.2609 34.8022 75.2206C34.8022 75.1803 34.8182 75.1416 34.8467 75.1131C34.8752 75.0846 34.9139 75.0686 34.9542 75.0686H73.2702C73.3105 75.0686 73.3492 75.0846 73.3777 75.1131C73.4062 75.1416 73.4223 75.1803 73.4223 75.2206C73.4223 75.2609 73.4062 75.2995 73.3777 75.328C73.3492 75.3565 73.3105 75.3725 73.2702 75.3725Z" fill="#3F3D56"/>
<path d="M118.925 91.0926L117.131 91.0924L116.277 84.1753H118.925L118.925 91.0926Z" fill="#FFB6B6"/>
<path d="M119.383 92.8308L113.597 92.8306V92.7575C113.597 92.1606 113.834 91.5882 114.257 91.1661C114.679 90.744 115.252 90.5069 115.849 90.5068H115.849L119.383 90.507L119.383 92.8308Z" fill="#2F2E41"/>
<path d="M105.293 91.0333L103.56 90.5702L104.523 83.6674L107.081 84.351L105.293 91.0333Z" fill="#FFB6B6"/>
<path d="M105.286 92.8309L99.6968 91.3371L99.7157 91.2665C99.87 90.6898 100.247 90.1981 100.764 89.8993C101.281 89.6006 101.896 89.5194 102.473 89.6735L102.473 89.6736L105.887 90.5859L105.286 92.8309Z" fill="#2F2E41"/>
<path d="M119.957 52.3271L121.46 54.0722L119.517 89.5362H115.364L113.271 62.248L106.781 90.2682L102.464 89.2101L106.389 53.6209L119.957 52.3271Z" fill="#2F2E41"/>
<path d="M107.392 29.4311L111.526 27.3587L117.884 27.4704L123.355 30.2683L120.242 45.805L121.587 53.9058H121.587C116.39 55.2303 110.949 55.2751 105.731 54.0362L105.689 54.0263C105.689 54.0263 108.779 43.0677 107.464 39.7235L107.392 29.4311Z" fill="#E4E4E4"/>
<path d="M119.352 21.1506C119.348 19.9106 118.851 18.723 117.971 17.8486C117.092 16.9742 115.901 16.4844 114.66 16.4867C113.419 16.489 112.23 16.9832 111.353 17.8609C110.477 18.7385 109.985 19.9279 109.985 21.1679C109.985 22.408 110.477 23.5973 111.353 24.475C112.23 25.3527 113.419 25.8469 114.66 25.8492C115.901 25.8515 117.092 25.3616 117.971 24.4872C118.851 23.6128 119.348 22.4253 119.352 21.1853C119.352 21.1737 119.352 21.1622 119.352 21.1506Z" fill="#FFB6B6"/>
<path d="M112.571 18.4758C112.814 18.2475 113.133 18.1187 113.466 18.1148C113.967 18.0986 114.717 18.2762 115.036 18.6828C115.292 19.0095 115.304 19.4591 115.305 19.8744L115.308 21.0206C115.309 21.3597 115.313 21.7133 115.467 22.0154C115.621 22.3175 115.975 22.5469 116.298 22.444C116.682 22.3218 116.851 21.8124 117.242 21.7208C117.537 21.652 117.839 21.867 117.968 22.1403C118.076 22.4237 118.112 22.7297 118.073 23.0306C118.035 23.6308 117.174 23.8688 117.052 24.4577C116.982 24.7983 116.735 25.4777 117.052 25.3353C118.516 25.1891 119.158 24.3347 119.828 23.5304L121.339 21.7164C121.512 21.5363 121.644 21.3219 121.728 21.0871C121.766 20.9226 121.779 20.7536 121.768 20.5852C121.76 20.1344 121.748 19.6836 121.731 19.233C121.717 18.8393 121.618 18.3425 121.232 18.2616C121.031 18.2195 120.766 18.2929 120.66 18.1175C120.62 18.0296 120.614 17.9303 120.642 17.838C120.727 17.388 120.871 16.9173 120.722 16.484C120.499 15.8304 119.729 15.5622 119.049 15.4389C118.369 15.3156 117.606 15.2095 117.179 14.6663C117.065 14.4859 116.941 14.3118 116.808 14.1448C116.612 13.9669 116.372 13.8456 116.112 13.794C115.268 13.5805 114.376 13.6596 113.583 14.0183C113.254 14.1683 112.924 14.3704 112.563 14.3475C112.188 14.3238 111.868 14.0601 111.498 13.996C110.9 13.8924 110.329 14.3399 110.034 14.8699C109.669 15.5267 109.636 16.426 110.151 16.9727C110.408 17.2454 110.792 17.4327 110.899 17.792C110.943 17.9382 110.932 18.0957 110.971 18.2433C111.016 18.3903 111.101 18.5216 111.217 18.6221C111.334 18.7226 111.476 18.7882 111.628 18.8114C111.993 18.8709 112.303 18.7036 112.571 18.4758Z" fill="#2F2E41"/>
<path d="M106.822 40.7589C106.911 40.9873 107.049 41.1935 107.226 41.3628C107.403 41.5322 107.616 41.6606 107.848 41.7391C108.08 41.8176 108.327 41.8442 108.571 41.817C108.815 41.7899 109.049 41.7097 109.259 41.582L117.653 46.0169L117.925 43.9732L109.768 39.1661C109.53 38.8288 109.177 38.5904 108.775 38.4961C108.373 38.4018 107.95 38.4582 107.587 38.6545C107.224 38.8509 106.945 39.1735 106.804 39.5614C106.663 39.9492 106.67 40.3753 106.822 40.7589V40.7589Z" fill="#FFB6B6"/>
<path d="M118.008 41.1123C117.871 41.3157 117.691 41.4867 117.481 41.6131C117.271 41.7396 117.036 41.8185 116.792 41.8443C116.548 41.87 116.302 41.842 116.07 41.7623C115.838 41.6825 115.626 41.5529 115.45 41.3825L106.288 43.8743L106.368 41.2796L115.482 38.9137C115.788 38.6366 116.185 38.4813 116.598 38.4772C117.01 38.4731 117.411 38.6205 117.722 38.8915C118.033 39.1625 118.234 39.5383 118.287 39.9476C118.34 40.3569 118.241 40.7713 118.008 41.1123V41.1123Z" fill="#FFB6B6"/>
<path d="M121.569 30.3802L123.355 30.2683C123.355 30.2683 125.446 33.0264 124.286 36.0193C124.286 36.0193 124.487 46.7706 119.855 46.3289C115.223 45.8873 113.759 45.8873 113.759 45.8873L115.15 42.011L118.26 41.0511C118.26 41.0511 117.301 36.8245 119.116 35.066L121.569 30.3802Z" fill="#E4E4E4"/>
<path d="M108.669 30.2857L108.417 28.9923C108.417 28.9923 104.694 28.9048 103.957 34.5437C103.957 34.5437 100.609 42.9828 103.891 44.0694C107.173 45.1559 110.783 44.0694 110.783 44.0694L110.511 40.3478L106.9 39.6112C106.9 39.6112 108.765 37.1992 107.75 35.1071L108.669 30.2857Z" fill="#E4E4E4"/>
<path d="M131.521 93H0.152048C0.111722 93 0.0730481 92.984 0.0445336 92.9555C0.0160191 92.927 0 92.8883 0 92.848C0 92.8077 0.0160191 92.7691 0.0445336 92.7406C0.0730481 92.7121 0.111722 92.696 0.152048 92.696H131.521C131.562 92.696 131.6 92.7121 131.629 92.7406C131.657 92.7691 131.673 92.8077 131.673 92.848C131.673 92.8883 131.657 92.927 131.629 92.9555C131.6 92.984 131.562 93 131.521 93Z" fill="#CACACA"/>
</g>
<defs>
<clipPath id="clip0">
<rect width="131.673" height="93" fill="white"/>
</clipPath>
</defs>
</svg>
