<svg width="241" height="37" viewBox="0 0 241 37" fill="none" xmlns="http://www.w3.org/2000/svg">
<path d="M15.6562 27.5391L23.3906 1.875H31.2188L19.3359 36H12L0.164062 1.875H7.96875L15.6562 27.5391ZM119.742 23.5078H114.141V36H107.109V1.875H119.789C123.82 1.875 126.93 2.77344 129.117 4.57031C131.305 6.36719 132.398 8.90625 132.398 12.1875C132.398 14.5156 131.891 16.4609 130.875 18.0234C129.875 19.5703 128.352 20.8047 126.305 21.7266L133.688 35.6719V36H126.141L119.742 23.5078ZM114.141 17.8125H119.812C121.578 17.8125 122.945 17.3672 123.914 16.4766C124.883 15.5703 125.367 14.3281 125.367 12.75C125.367 11.1406 124.906 9.875 123.984 8.95312C123.078 8.03125 121.68 7.57031 119.789 7.57031H114.141V17.8125ZM144.469 36H137.672V10.6406H144.469V36ZM137.273 4.07812C137.273 3.0625 137.609 2.22656 138.281 1.57031C138.969 0.914062 139.898 0.585938 141.07 0.585938C142.227 0.585938 143.148 0.914062 143.836 1.57031C144.523 2.22656 144.867 3.0625 144.867 4.07812C144.867 5.10938 144.516 5.95312 143.812 6.60938C143.125 7.26562 142.211 7.59375 141.07 7.59375C139.93 7.59375 139.008 7.26562 138.305 6.60938C137.617 5.95312 137.273 5.10938 137.273 4.07812ZM149.016 23.1328C149.016 19.1797 149.898 16.0312 151.664 13.6875C153.445 11.3438 155.875 10.1719 158.953 10.1719C161.422 10.1719 163.461 11.0938 165.07 12.9375V0H171.867V36H165.75L165.422 33.3047C163.734 35.4141 161.562 36.4688 158.906 36.4688C155.922 36.4688 153.523 35.2969 151.711 32.9531C149.914 30.5938 149.016 27.3203 149.016 23.1328ZM155.789 23.625C155.789 26 156.203 27.8203 157.031 29.0859C157.859 30.3516 159.062 30.9844 160.641 30.9844C162.734 30.9844 164.211 30.1016 165.07 28.3359V18.3281C164.227 16.5625 162.766 15.6797 160.688 15.6797C157.422 15.6797 155.789 18.3281 155.789 23.625ZM188.789 36.4688C185.07 36.4688 182.039 35.3281 179.695 33.0469C177.367 30.7656 176.203 27.7266 176.203 23.9297V23.2734C176.203 20.7266 176.695 18.4531 177.68 16.4531C178.664 14.4375 180.055 12.8906 181.852 11.8125C183.664 10.7188 185.727 10.1719 188.039 10.1719C191.508 10.1719 194.234 11.2656 196.219 13.4531C198.219 15.6406 199.219 18.7422 199.219 22.7578V25.5234H183.07C183.289 27.1797 183.945 28.5078 185.039 29.5078C186.148 30.5078 187.547 31.0078 189.234 31.0078C191.844 31.0078 193.883 30.0625 195.352 28.1719L198.68 31.8984C197.664 33.3359 196.289 34.4609 194.555 35.2734C192.82 36.0703 190.898 36.4688 188.789 36.4688ZM188.016 15.6562C186.672 15.6562 185.578 16.1094 184.734 17.0156C183.906 17.9219 183.375 19.2188 183.141 20.9062H192.562V20.3672C192.531 18.8672 192.125 17.7109 191.344 16.8984C190.562 16.0703 189.453 15.6562 188.016 15.6562ZM217.336 16.9922C216.414 16.8672 215.602 16.8047 214.898 16.8047C212.336 16.8047 210.656 17.6719 209.859 19.4062V36H203.086V10.6406H209.484L209.672 13.6641C211.031 11.3359 212.914 10.1719 215.32 10.1719C216.07 10.1719 216.773 10.2734 217.43 10.4766L217.336 16.9922ZM234.352 28.9922C234.352 28.1641 233.938 27.5156 233.109 27.0469C232.297 26.5625 230.984 26.1328 229.172 25.7578C223.141 24.4922 220.125 21.9297 220.125 18.0703C220.125 15.8203 221.055 13.9453 222.914 12.4453C224.789 10.9297 227.234 10.1719 230.25 10.1719C233.469 10.1719 236.039 10.9297 237.961 12.4453C239.898 13.9609 240.867 15.9297 240.867 18.3516H234.094C234.094 17.3828 233.781 16.5859 233.156 15.9609C232.531 15.3203 231.555 15 230.227 15C229.086 15 228.203 15.2578 227.578 15.7734C226.953 16.2891 226.641 16.9453 226.641 17.7422C226.641 18.4922 226.992 19.1016 227.695 19.5703C228.414 20.0234 229.617 20.4219 231.305 20.7656C232.992 21.0938 234.414 21.4688 235.57 21.8906C239.148 23.2031 240.938 25.4766 240.938 28.7109C240.938 31.0234 239.945 32.8984 237.961 34.3359C235.977 35.7578 233.414 36.4688 230.273 36.4688C228.148 36.4688 226.258 36.0938 224.602 35.3438C222.961 34.5781 221.672 33.5391 220.734 32.2266C219.797 30.8984 219.328 29.4688 219.328 27.9375H225.75C225.812 29.1406 226.258 30.0625 227.086 30.7031C227.914 31.3438 229.023 31.6641 230.414 31.6641C231.711 31.6641 232.688 31.4219 233.344 30.9375C234.016 30.4375 234.352 29.7891 234.352 28.9922Z" fill="#FF8800"/>
<path d="M41.9297 36H34.8984V1.875H41.9297V36ZM68.1562 28.9688H55.8281L53.4844 36H46.0078L58.7109 1.875H65.2266L78 36H70.5234L68.1562 28.9688ZM57.7266 23.2734H66.2578L61.9688 10.5L57.7266 23.2734ZM81.0938 32.6719C81.0938 31.5938 81.4531 30.7188 82.1719 30.0469C82.9062 29.375 83.8203 29.0391 84.9141 29.0391C86.0234 29.0391 86.9375 29.375 87.6562 30.0469C88.3906 30.7188 88.7578 31.5938 88.7578 32.6719C88.7578 33.7344 88.3984 34.6016 87.6797 35.2734C86.9609 35.9297 86.0391 36.2578 84.9141 36.2578C83.8047 36.2578 82.8906 35.9297 82.1719 35.2734C81.4531 34.6016 81.0938 33.7344 81.0938 32.6719Z" fill="#666666"/>
</svg>
